# xmcd CD database file
#
# Track frame offsets:
#	150
#	30083
#	53742
#	86685
#	117712
#	151904
#	179389
#	208422
#
# Disc length: 3103 seconds
#
# Revision: 2
# Processed by: cddbd v1.4b41PL1 Copyright (c) Steve Scherf et al.
# Submitted via: Feurio! 1.52 - http://www.feurio.com
#
DISCID=660c1d08
DTITLE=Cafe del Mar - Aria
DYEAR=1900
DGENRE=
TTITLE0=Willow
TTITLE1=Un Bel Di
TTITLE2=Secret Tear
TTITLE3=Dido
TTITLE4=Pace Pace
TTITLE5=Pamina Blue
TTITLE6=Habanera
TTITLE7=Home
EXTD=
EXTT0=
EXTT1=
EXTT2=
EXTT3=
EXTT4=
EXTT5=
EXTT6=
EXTT7=
PLAYORDER=
